<svg width="28" height="30" viewBox="0 0 28 30" fill="none" xmlns="http://www.w3.org/2000/svg">
<g id="24 / basic / layers" filter="url(#filter0_d)">
<path id="icon" fill-rule="evenodd" clip-rule="evenodd" d="M15.1566 2.28024L23.2077 6.7531C24.2641 7.33997 24.2641 8.66003 23.2077 9.2469L21.8521 10L23.2077 10.7531C24.2641 11.34 24.2641 12.66 23.2077 13.2469L21.8521 14L23.2077 14.7531C24.2641 15.34 24.2641 16.66 23.2077 17.2469L15.1566 21.7198C14.484 22.0934 13.516 22.0934 12.8434 21.7198L4.79227 17.2469C3.73591 16.66 3.73591 15.34 4.79227 14.7531L6.14785 14L4.79227 13.2469C3.73591 12.66 3.73591 11.34 4.79227 10.7531L6.14785 10L4.79227 9.2469C3.73591 8.66003 3.73591 7.33997 4.79227 6.7531L12.8434 2.28024C13.516 1.90659 14.484 1.90659 15.1566 2.28024ZM15.1566 13.7198L19.793 11.144L21.3339 12L19.793 12.856L17.7339 14L14.1853 15.9714C14.1168 16.0095 13.8832 16.0095 13.8147 15.9714L10.2661 14L8.20698 12.856L6.6661 12L8.20698 11.144L12.8434 13.7198C13.516 14.0934 14.484 14.0934 15.1566 13.7198ZM8.20698 15.144L6.6661 16L13.8147 19.9714C13.8832 20.0095 14.1168 20.0095 14.1853 19.9714L21.3339 16L19.793 15.144L15.1566 17.7198C14.484 18.0934 13.516 18.0934 12.8434 17.7198L8.20698 15.144ZM13.8147 4.02855C13.8832 3.99048 14.1168 3.99048 14.1853 4.02855L21.3339 8L14.1853 11.9714C14.1168 12.0095 13.8832 12.0095 13.8147 11.9714L6.6661 8L13.8147 4.02855Z" fill="white"/>
</g>
<defs>
<filter id="filter0_d" x="-2" y="0" width="32" height="32" filterUnits="userSpaceOnUse" color-interpolation-filters="sRGB">
<feFlood flood-opacity="0" result="BackgroundImageFix"/>
<feColorMatrix in="SourceAlpha" type="matrix" values="0 0 0 0 0 0 0 0 0 0 0 0 0 0 0 0 0 0 127 0"/>
<feOffset dy="4"/>
<feGaussianBlur stdDeviation="2"/>
<feColorMatrix type="matrix" values="0 0 0 0 0 0 0 0 0 0 0 0 0 0 0 0 0 0 0.25 0"/>
<feBlend mode="normal" in2="BackgroundImageFix" result="effect1_dropShadow"/>
<feBlend mode="normal" in="SourceGraphic" in2="effect1_dropShadow" result="shape"/>
</filter>
</defs>
</svg>
